<?xml version="1.0" encoding="utf-8"?>
<!-- Generator: Adobe Illustrator 24.1.0, SVG Export Plug-In . SVG Version: 6.00 Build 0)  -->
<svg version="1.1" id="Capa_1" xmlns="http://www.w3.org/2000/svg" xmlns:xlink="http://www.w3.org/1999/xlink" x="0px" y="0px"
	 viewBox="0 0 25 25" style="enable-background:new 0 0 25 25;" xml:space="preserve">
<style type="text/css">
	.st0{opacity:0.4;}
	.st1{fill:#242259;}
	.st2{fill:#393844;}
	.st3{fill:#606065;}
	.st4{fill:#575C94;}
	.st5{fill:#585993;}
</style>
<path class="st0" d="M25,13.45C25,24.36,12.86,25,12.6,25C1.31,25,0,15.25,0,11.81C0,4.63,8.25,0,12.18,0C19.79,0,25,6.27,25,13.45z
	"/>
<g>
	<path class="st1" d="M16.9,7.53c-1.18-0.58-2.35-1.16-3.54-1.72c-0.54-0.26-1.07-0.23-1.61,0.05C10.5,6.51,9.24,7.14,7.98,7.78
		c-0.82,0.41-1.39,0.99-1.34,2c0,0.03,0,0.07-0.01,0.1c-1.29,3.93-0.77,7.88-0.07,11.82c0.01,0.06-0.03,0.12-0.06,0.27
		c-0.63-0.24-1.07-0.71-1.54-1.14C1.3,17.48,0.29,12.12,2.45,7.59C4.6,3.1,9.52,0.52,14.26,1.4c4.95,0.92,8.63,4.89,9.16,9.88
		c0.71,6.67-4.36,12.46-10.93,12.52c-0.7,0.01-0.98-0.2-1.08-0.9c-0.24-1.72-0.29-3.45-0.31-5.18c-0.01-0.61,0.32-1,0.75-1.33
		c1.69-1.27,2.98-3,4.81-4.1c0.21-0.13,0.48-0.28,0.39-0.62c-0.08-0.27-0.29-0.45-0.55-0.52c-0.67-0.19-1.3-0.09-1.88,0.3
		c-0.64,0.42-1.32,0.72-2.09,0.8c-0.47,0.05-0.93,0.03-1.32-0.25c-0.44-0.31-0.83-0.72-0.79-1.3c0.04-0.54,0.54-0.72,0.97-0.88
		c1.38-0.51,2.77-0.37,4.16-0.03c0.54,0.14,1.08,0.27,1.62,0.41c0.6,0.16,1.04-0.04,1.26-0.63c0.27-0.74-0.41-0.67-0.76-0.87
		c-0.11-0.07-0.23-0.12-0.35-0.17c-0.09-0.16,0.01-0.26,0.12-0.35c0.06-0.03,0.14-0.02,0.18-0.06c0.09-0.08-0.04-0.06-0.05-0.06
		C17.25,8,17.06,7.78,16.9,7.53z"/>
	<path class="st2" d="M17.58,8.29c-0.09,0.08-0.19,0.16-0.28,0.25c-0.86-0.31-1.77-0.5-2.55-0.94c-1.11-0.63-2.17-0.77-3.31-0.22
		c-0.23,0.1-0.26-0.03-0.24-0.22c1.21-0.74,2.39-0.86,3.63-0.01c0.47,0.32,1.08,0.42,1.63,0.62C16.84,7.91,17.42,7.64,17.58,8.29z"
		/>
	<path class="st3" d="M11.2,7.15c0.08,0.07,0.16,0.14,0.24,0.22c-0.68,0.36-1.4,0.6-2.13,0.78C9.27,8.07,9.23,7.99,9.2,7.91
		C9.86,7.66,10.53,7.41,11.2,7.15z"/>
	<path class="st4" d="M5.57,20.07c-1.8-1.85-3.01-3.86-3.22-6.35C1.91,8.23,4.76,3.98,9.99,2.6c3.23-0.85,6.2-0.06,8.81,2.13
		c3.79,3.18,4.79,8.98,1.88,13.43c-1.86,2.84-4.58,4.27-7.9,4.55c-0.5,0.04-0.79-0.1-0.87-0.66c-0.23-1.49-0.12-2.99-0.13-4.48
		c0-0.38,0.31-0.56,0.57-0.76c1.74-1.3,3.08-3.09,4.96-4.22c0.11-0.06,0.27-0.21,0.25-0.29c-0.36-1.48,1.18-1.81,1.65-2.79
		c0.42-0.88,0.35-1.55-0.55-1.95c-1.71-0.75-3.43-1.47-5.08-2.37c-0.77-0.42-1.57-0.21-2.25,0.19c-1.17,0.68-2.4,1.22-3.6,1.83
		c-0.99,0.5-1.65,1.22-1.7,2.47c-0.04,0.92-0.28,1.84-0.53,2.73c-0.62,2.19-0.33,4.34,0.08,6.51C5.63,19.25,5.74,19.57,5.57,20.07z"
		/>
	<path class="st5" d="M15.25,10.44c-0.97,0.44-1.66,1.12-2.67,1.16c-0.3,0.01-0.58-0.02-0.86-0.07c-0.32-0.06-0.54-0.27-0.6-0.58
		c-0.07-0.41,0.31-0.47,0.56-0.56C12.82,10,13.95,10.03,15.25,10.44z"/>
</g>
</svg>
