<?xml version="1.0" encoding="utf-8"?>
<!-- Generator: Adobe Illustrator 24.1.0, SVG Export Plug-In . SVG Version: 6.00 Build 0)  -->
<svg version="1.1" id="Capa_1" xmlns="http://www.w3.org/2000/svg" xmlns:xlink="http://www.w3.org/1999/xlink" x="0px" y="0px"
	 viewBox="0 0 25 25" style="enable-background:new 0 0 25 25;" xml:space="preserve">
<style type="text/css">
	.st0{opacity:0.4;}
	.st1{fill:#FCFCFC;}
	.st2{fill:#252258;}
	.st3{fill:#393647;}
	.st4{fill:#363441;}
	.st5{fill:#353341;}
	.st6{fill:#575C94;}
</style>
<path class="st0" d="M12.6,25C4.99,25,0,18.99,0,11.81C0,8.36,4.57,0,12.18,0S25,4.87,25,12.05S20.21,25,12.6,25"/>
<path class="st1" d="M18.08,12.23"/>
<path class="st2" d="M17.88,15.92c0.63-0.38,1.12-0.79,0.2-1.4c-0.06-0.21,0-0.3,0.23-0.24c0.54-0.25,0.67-0.63,0.35-1.15
	c-0.14-0.22-0.16-0.44,0-0.66c0.06-0.49-0.23-0.8-0.51-1.13c-2.03-2.4-4.54-4.09-7.43-5.24C9.38,5.55,8.06,4.97,7,3.91
	C6.51,3.42,6.46,3.17,7.11,2.76C13.57-1.32,22.13,2.3,23.8,9.84c1.05,4.71-0.94,9.52-4.98,12.08c-3.92,2.48-9.08,2.19-12.63-0.69
	c-3.81-3.1-5.24-8.07-3.66-12.64C2.91,7.5,2.91,7.52,3.75,8.31c1.27,1.19,2.41,2.43,2.6,4.31c0.06,0.64,0.59,1.1,1.03,1.55
	c0.85,0.87,1.71,1.75,2.57,2.62c0.21,0.21,0.35,0.65,0.77,0.32c0.38-0.29,0.57-0.64,0.36-1.12c-0.37-0.86-0.93-1.6-1.45-2.36
	c-0.07-0.1-0.13-0.21-0.31-0.51c1.38,0.67,2.47,1.4,3.49,2.25c0.73,0.62,1.5,1.17,2.42,1.51c0.69,0.25,1.22,0.14,1.53-0.59
	C16.99,15.71,17.54,16.16,17.88,15.92z"/>
<path class="st3" d="M18.31,14.27c-0.08,0.08-0.15,0.16-0.23,0.24c-1.73-0.83-3.21-2.04-4.7-3.24c-0.16-0.13-0.34-0.28-0.13-0.48
	c0.17-0.16,0.29,0.04,0.4,0.14C15.1,12.21,16.7,13.24,18.31,14.27z"/>
<path class="st4" d="M17.88,15.92c-0.38,0.12-0.75,0.24-1.13,0.36c-0.82-1.22-2.19-1.74-3.23-2.68c-0.39-0.35-0.94-0.55-1.15-1.12
	c0.39-0.23,0.52,0.1,0.7,0.24c1.23,1.03,2.66,1.81,3.81,2.95C17.18,15.98,17.54,15.84,17.88,15.92z"/>
<path class="st5" d="M18.65,12.46c0,0.22,0,0.44,0,0.66c-1.63-0.86-3.03-2.04-4.4-3.27c-0.16-0.14-0.45-0.32-0.21-0.55
	c0.27-0.27,0.38,0.14,0.51,0.26c1.07,0.98,2.17,1.9,3.4,2.67C18.17,12.37,18.36,12.59,18.65,12.46z"/>
<path class="st6" d="M11.81,15.49c0.97,0.96,1.98,1.67,3.19,2.04c0.85,0.26,1.62,0.28,2.15-0.61c0.17-0.28,0.43-0.35,0.75-0.37
	c0.76-0.06,1.17-0.59,1.33-1.27c0.57-2.36-0.07-4.24-1.92-5.91c-2.13-1.93-4.6-3.14-7.15-4.26c-0.7-0.31-1.33-0.71-1.98-1.09
	c-0.52-0.3-0.45-0.51,0.09-0.79c6.38-3.25,13.72,0.69,14.57,7.89c0.5,4.21-1.13,7.53-4.57,9.79c-3.22,2.11-6.65,2.16-10.08,0.36
	c-4.41-2.32-5.98-7.17-5.05-11.29c0.23-1.02,0.36-1.04,1.04-0.3c0.56,0.61,1.1,1.25,1.26,2.1c0.27,1.44,1.02,2.55,2.1,3.5
	c0.67,0.59,1.28,1.24,1.84,1.94c0.39,0.49,0.78,0.83,1.41,0.57c0.62-0.25,1.04-0.69,1.02-1.43C11.8,16.12,11.81,15.87,11.81,15.49z"
	/>
<path class="st1" d="M22.05,4.19"/>
</svg>
