<?xml version="1.0" encoding="utf-8"?>
<!-- Generator: Adobe Illustrator 24.1.0, SVG Export Plug-In . SVG Version: 6.00 Build 0)  -->
<svg version="1.1" id="Capa_1" xmlns="http://www.w3.org/2000/svg" xmlns:xlink="http://www.w3.org/1999/xlink" x="0px" y="0px"
	 viewBox="0 0 25 25" style="enable-background:new 0 0 25 25;" xml:space="preserve">
<style type="text/css">
	.st0{opacity:0.4;}
	.st1{fill:#242259;}
	.st2{fill:#3F3D4C;}
	.st3{fill:#5B5B65;}
	.st4{fill:#4C4B52;}
	.st5{fill:#575C94;}
</style>
<path class="st0" d="M25,12.05C25,19.23,20.21,25,12.6,25S0,18.99,0,11.81S6.87,0,10.8,0C18.42,0,25,4.87,25,12.05z"/>
<path class="st1" d="M9.51,15.03c0.01,0.4-0.02,0.8,0.03,1.19c0.06,0.5,0.4,0.8,0.86,0.8c0.52-0.01,0.3-0.51,0.33-0.78
	c0.12-1.1,0.16-2.21,0.59-3.26c0.17,0.78-0.14,1.52-0.16,2.28c-0.03,0.96-0.52,2.06,0.48,2.77c1,0.72,1.92-0.03,2.85-0.38
	c0.09-0.03,0.18-0.08,0.26-0.12c0.22-0.11,0.23,0.01,0.21,0.19c-0.42,0.42-1.03,0.51-1.6,0.87c2.82,0.37,5.4-1.59,5.59-4.27
	c0.09-1.28,0.5-2.15,1.62-2.8c0.96-0.55,1.82-1.29,2.8-2.01c0.6,1.44,0.58,2.88,0.44,4.31c-0.5,4.97-4.3,9.03-9.17,9.87
	c-4.9,0.84-9.8-1.78-11.9-6.37C0.67,12.81,1.81,7.33,5.48,4.11C9.31,0.74,14.7,0.38,18.9,3.15c0.73,0.48,0.73,0.79,0.03,1.22
	c-0.11,0.07-0.2,0.17-0.29,0.26c-1.46,1.49-3.01,2.55-5.31,2.25c-1.4-0.19-2.84,0.36-4.2,0.88c-0.77,0.3-1.22,0.86-1.37,1.68
	c-0.21,1.11-0.4,2.23-0.45,3.36c-0.01,0.33-0.05,0.67,0.23,0.93c0.88-0.01,0.58,0.73,0.73,1.19c0.23,0.27,0.39,0.62,0.77,0.75
	c0.34-0.3,0.15-0.75,0.28-1.1C9.73,14.56,9.52,14.84,9.51,15.03z"/>
<path class="st2" d="M14.97,17.71c-0.07-0.06-0.14-0.12-0.21-0.19c0.95-0.74,1.15-1.72,0.83-2.84c-0.07-0.25-0.06-0.73-0.45-0.58
	c-0.31,0.12-0.82,0.48-0.64,0.85c0.33,0.66-0.02,0.38-0.36,0.49c-0.37,0.11-0.48,0.74-1.05,0.85c0.78-0.81,0.63-1.91,0.91-2.92
	c0.39,0.3,0.1,0.65,0.25,0.9c0.23,0.01,0.32-0.19,0.45-0.33c0.56-0.61,1-0.53,1.34,0.26C16.48,15.22,15.92,17.02,14.97,17.71z"/>
<path class="st3" d="M8.27,14.91c-0.26-0.39-0.1-1.04-0.73-1.19c0.64-0.02,0.43-0.57,0.5-0.89c0.21-1.08,0.37-2.18,0.88-3.2
	C8.83,11.42,8.21,13.13,8.27,14.91z"/>
<path class="st4" d="M9.51,15.03c-0.07-0.16-0.13-0.32-0.2-0.47c0.11-1.15,0.42-2.24,0.78-3.32c0.09,0.02,0.18,0.04,0.28,0.06
	C10.08,12.55,9.79,13.79,9.51,15.03z"/>
<path class="st5" d="M22.7,12.78c-0.23,4.5-2.4,7.67-6.5,9.33c-5.95,2.39-12.65-1.83-13.45-8.24C1.84,6.53,8.64,0.59,15.8,2.81
	c0.62,0.19,1.19,0.55,1.79,0.82c0.66,0.3,0.51,0.65,0.08,1.02c-0.32,0.28-0.67,0.54-0.96,0.85c-0.56,0.6-1.15,0.79-2.01,0.72
	c-2.12-0.16-4.17,0.35-6.14,1.13c-1.14,0.45-1.41,1.59-1.57,2.7c-0.12,0.75-0.21,1.52-0.25,2.28c-0.04,0.78-0.15,1.53,0.69,2.11
	c0.44,0.31,0.62,1.03,0.95,1.56c0.7,1.1,1.91,1.53,2.74,2.43c0.59,0.65,1.57,0.71,2.35,0.83c2.98,0.46,5.95-2.02,6.02-5.03
	c0.03-1.37,0.86-1.92,1.76-2.51c0.4-0.26,0.85-0.85,1.24-0.63c0.42,0.25,0.18,0.97,0.24,1.48C22.73,12.64,22.71,12.71,22.7,12.78z"
	/>
</svg>
