<?xml version="1.0" encoding="utf-8"?>
<!-- Generator: Adobe Illustrator 24.1.0, SVG Export Plug-In . SVG Version: 6.00 Build 0)  -->
<svg version="1.1" id="Capa_1" xmlns="http://www.w3.org/2000/svg" xmlns:xlink="http://www.w3.org/1999/xlink" x="0px" y="0px"
	 viewBox="0 0 25 25" style="enable-background:new 0 0 25 25;" xml:space="preserve">
<style type="text/css">
	.st0{opacity:0.4;}
	.st1{fill:#FCFCFC;}
	.st2{fill:#242159;}
	.st3{fill:#3D3B4C;}
	.st4{fill:#3E3C48;}
	.st5{fill:#575C94;}
</style>
<path class="st0" d="M25,12.05C25,19.23,20.21,25,12.6,25S0,18.99,0,11.81S4.57,0,12.18,0S25,4.87,25,12.05z"/>
<path class="st1" d="M22.05,4.19"/>
<path class="st2" d="M10.98,5.62C9.92,5.69,9.64,6.07,9.73,7.25c0.16,2.16,0.31,4.32,0.2,6.48c-0.02,0.5,0.16,1.17-0.43,1.43
	c-0.57,0.24-1.06-0.18-1.51-0.51c-0.56-0.41-1.07-0.88-1.73-1.14c-0.37-0.15-0.75-0.26-1.15-0.12c-0.25,0.08-0.52,0.19-0.58,0.48
	c-0.05,0.26,0.17,0.42,0.36,0.55c2.04,1.33,3.01,3.68,4.85,5.2c0.34,0.28,0.62,2.95,0.42,3.29c-0.23,0.39-0.54,0.1-0.78,0.03
	c-3.24-1.05-5.59-3.15-6.96-6.31c-2.48-5.73,0.24-12.5,5.94-14.87C14.2-0.66,20.7,2.21,22.98,8.2c2.17,5.71-0.81,12.37-6.46,14.5
	c-0.7,0.26-0.99,0.33-1-0.63c-0.01-1.43,0.01-2.77,1.03-3.91c0.44-0.5,0.54-1.22,0.54-1.89c-0.03-2.43,0.59-4.74,1.1-7.08
	c0.04-0.19,0.1-0.39,0.11-0.59c0.02-0.28-0.04-0.54-0.35-0.64c-0.37-0.13-0.45,0.16-0.54,0.41c-0.53,1.38-1.06,2.77-1.58,4.15
	c-0.28-0.21-0.45-0.3-0.19-0.83c0.67-1.36,1.14-2.83,1.67-4.26c0.08-0.21,0.11-0.46,0.12-0.68c0.01-0.46-0.24-0.76-0.66-0.88
	c-0.47-0.12-0.64,0.23-0.77,0.59c-0.55,1.5-1.08,3-1.64,4.49c-0.1,0.27-0.12,0.77-0.55,0.7c-0.35-0.06-0.25-0.49-0.29-0.77
	c-0.24-1.68-0.47-3.36-0.7-5.04c-0.15-1.12-0.36-1.24-1.4-0.8C11.15,5.14,11.5,5.7,10.98,5.62z"/>
<path class="st3" d="M10.98,5.62c0.14-0.2,0.28-0.39,0.42-0.59c0.19,2.26,0.41,4.51,0.93,6.75c-0.18,0.04-0.51,0.13-1.03,0.26
	c0.42-0.5,0.39-0.93,0.32-1.38C11.39,8.98,11.19,7.3,10.98,5.62z"/>
<path class="st4" d="M11.04,15.28c1.93,0.19,2.74,1.68,2.02,3.36C13.16,17.15,12.6,16.04,11.04,15.28z"/>
<path class="st5" d="M13.99,9.2c-0.15-1.11-0.3-2.22-0.43-3.33c-0.08-0.67-0.14-1.36-0.85-1.68c-0.71-0.33-1.33-0.16-1.88,0.4
	c-0.13,0.13-0.34,0.18-0.51,0.26c-0.86,0.39-1.32,1.03-1.3,2.02c0.05,2.13,0.33,4.25,0.21,6.38c-0.02,0.35,0.18,0.82-0.18,1.02
	c-0.37,0.2-0.62-0.25-0.9-0.45c-0.92-0.64-1.8-1.37-3.03-1.19c-0.6,0.09-1.03,0.39-1.27,0.97c-0.17,0.42-0.11,0.83,0.25,1.08
	c1.92,1.3,2.99,3.42,4.64,4.98c0.44,0.41,0.72,0.82,0.7,1.45c-0.02,0.6-0.13,0.76-0.75,0.48c-3.66-1.63-5.74-4.46-6.12-8.47
	C2.12,8.59,4.04,5.08,7.92,3.06c5.53-2.88,12.2-0.19,14.19,6.09c1.41,4.43-0.71,9.69-4.76,11.98c-0.25,0.14-0.52,0.36-0.82,0.21
	c-0.38-0.19-0.21-0.58-0.23-0.9c-0.05-0.69,0.43-1.18,0.75-1.69c0.56-0.88,0.82-1.85,0.8-2.84c-0.05-2.23,0.58-4.34,1.04-6.47
	c0.17-0.81,0.37-1.58-0.5-2.11c-0.29-0.18-0.27-0.51-0.29-0.81c-0.06-0.89-0.64-1.33-1.4-1.42c-0.74-0.08-1.18,0.43-1.41,1.14
	c-0.33,1-0.7,1.99-1.05,2.98C14.16,9.21,14.07,9.21,13.99,9.2z"/>
</svg>
