<?xml version="1.0" encoding="utf-8"?>
<!-- Generator: Adobe Illustrator 24.1.0, SVG Export Plug-In . SVG Version: 6.00 Build 0)  -->
<svg version="1.1" id="Capa_1" xmlns="http://www.w3.org/2000/svg" xmlns:xlink="http://www.w3.org/1999/xlink" x="0px" y="0px"
	 viewBox="0 0 25 25" style="enable-background:new 0 0 25 25;" xml:space="preserve">
<style type="text/css">
	.st0{opacity:0.4;}
	.st1{fill:#242259;}
	.st2{fill:#322F44;}
	.st3{fill:#3B3948;}
	.st4{fill:#757479;}
	.st5{fill:#575C94;}
</style>
<path class="st0" d="M25,12.05C25,19.23,19.93,25,11.88,25S0,18.99,0,11.81S4.84,0,12.89,0S25,4.87,25,12.05z"/>
<path class="st1" d="M12.98,11.63c-0.04-0.05-0.13-0.11-0.12-0.16c0.21-1.3-0.84-1.47-1.73-1.75C9.62,9.25,8.09,8.8,6.57,8.33
	C6.19,8.22,5.74,7.95,5.51,8.49C5.29,9,5.69,9.3,6.11,9.5c1.37,0.65,2.74,1.28,4.11,1.92c0.37,0.17,0.76,0.33,1.12,0.53
	c0.35,0.19,0.88,0.3,0.82,0.79c-0.07,0.53-0.64,0.43-1.02,0.47c-1.99,0.25-3.99,0.46-5.99,0.71c-0.97,0.12-1.08,0.34-0.68,1.26
	c0.67,0.34,1.39,0.12,2.09,0.15c1.06,0.05,2.13-0.03,3.2,0.03c0.63,0.61,0.85,1.56,1.77,1.91c0.15,0.14,0.19,0.33,0.26,0.51
	c0.54,0.98,1.44,0.64,2.25,0.56c0.58-0.06,1.04-0.47,1.63-0.53c0.3,0,0.5,0.14,0.59,0.41c1.67,0.32,2.87-0.39,3.85-1.61
	c0.38-0.47,2.92-0.89,3.39-0.57c0.37,0.25,0.05,0.54-0.06,0.78c-1.67,3.68-4.55,6.01-8.65,6.76c-5.24,0.96-10.33-1.51-12.67-6
	C-0.21,13.12,0.79,7.77,4.6,4.3c3.74-3.4,9.38-4.01,13.97-1.45c2.63,1.47,4.35,3.65,5.28,6.43c0.22,0.65,0.06,0.78-0.62,0.78
	c-1.71-0.01-3.29-0.15-4.8-1.2c-2.41-1.68-4.77-0.57-5.24,2.29C13.28,11.38,13.39,11.62,12.98,11.63z"/>
<path class="st2" d="M14.23,15.64c-0.74-0.35-3.89,0.49-4.35,0.05c-1.18-0.51-2.43-0.1-3.64-0.24c-0.59-0.07-1.24,0.23-1.76-0.26
	c2.63,0.3,5.24,0.12,7.85-0.22c0.82-0.11,1.64-0.27,2.46-0.33c0.65-0.04,1.29,0.06,1.21,0.95c-0.01,0.07,0.05,0.17,0.11,0.22
	c1.07,1.08,1.08,1.08,0.15,2.42c-0.18-0.06-0.36-0.13-0.54-0.19c-0.19-0.18-0.21-0.47-0.03-0.55c0.47-0.21,0.33-1.1-0.02-1.33
	c-0.27-0.17-0.49,0.14-0.72,0.27c-0.78,0.44-1.85,0.66-2.55,1.27c-0.31,0.27-0.24,0.31-0.62,0.09c0.12-0.31-0.33-0.23-0.28-0.38
	c0.6-0.23,0.6-0.23,0.99-0.35c0.76-0.23,1.49-0.78,2.15-1.45"/>
<path class="st3" d="M12.98,11.63c0.07-0.16,0.15-0.32,0.22-0.47c0.21,0.53,0.43,1.05,0.63,1.58c0.08,0.22,0.15,0.47,0.45,0.47
	c0.28,0.01,0.42-0.2,0.55-0.4c0.23-0.35,0.29-0.74,0.34-1.14c0.03-0.26,0.06-0.53,0.12-0.79c0.12-0.58,0.65-0.59,1.06-0.55
	c0.46,0.05,0.37,0.51,0.32,0.82c-0.17,0.94-0.32,1.87,0.66,2.53c0.03,0.17,0.02,0.3-0.22,0.19c-1.07-0.53-1.02-1.46-0.94-2.41
	c0.02-0.21,0.3-0.59-0.15-0.63c-0.36-0.03-0.33,0.35-0.37,0.6c-0.07,0.52-0.09,1.06-0.39,1.53c-0.24,0.38-0.53,0.71-1.05,0.67
	c-0.51-0.03-0.67-0.4-0.8-0.79C13.26,12.44,13.12,12.04,12.98,11.63z"/>
<path class="st4" d="M17.11,13.87c0.07-0.06,0.15-0.13,0.22-0.19c0.38,0.13,0.75,0.27,1.13,0.4C17.93,14.31,17.5,14.2,17.11,13.87z"
	/>
<path class="st5" d="M10.77,12.56c-0.92,0.38-1.88,0.37-2.79,0.43c-1.11,0.08-2.19,0.3-3.29,0.42c-0.73,0.08-1.03,0.49-1.07,1.12
	c-0.04,0.69,0.33,1.13,1.02,1.32c1.1,0.31,2.2,0.08,3.31,0.02c0.69-0.04,1.12,0.04,1.49,0.82c0.48,1.02,1.36,1.95,2.36,2.53
	c1.05,0.6,2.29,0.36,3.39-0.2c0.53-0.26,1.1-0.21,1.63-0.15c1.38,0.15,2.42-0.34,3.29-1.33c0.3-0.34,0.58-0.78,1.11-0.86
	c0.27-0.04,0.6-0.12,0.79,0.1c0.17,0.2-0.05,0.44-0.16,0.64c-1.44,2.47-3.57,4.13-6.4,4.92c-7.4,2.08-14.72-4.13-13.45-11.4
	c0.85-4.85,5.09-8.45,10.22-8.67c4.2-0.18,8.53,2.52,10.12,6.29c0.28,0.66,0.15,0.84-0.62,0.89c-1.16,0.07-1.99-0.54-2.82-1.1
	c-2.2-1.49-3.8-1.24-5.68,0.85c-0.3,0.34-0.53,0.42-0.97,0.27c-1.83-0.6-3.69-1.14-5.52-1.76C5.96,7.46,5.33,7.5,4.94,8.21
	c-0.36,0.64,0.01,1.44,0.81,1.82c1.46,0.69,2.93,1.36,4.4,2.03C10.36,12.16,10.6,12.21,10.77,12.56z"/>
</svg>
